<svg xmlns="http://www.w3.org/2000/svg" viewBox="0 0 860 270">
  <defs>
    <style>
      @keyframes popTile { from{opacity:0;transform:scale(0.85)} to{opacity:1;transform:scale(1)} }
      @keyframes glowTile { 0%,100%{stroke-opacity:.4} 50%{stroke-opacity:1} }
    </style>
  </defs>

  <rect width="860" height="270" fill="#0b0f19" rx="12"/>
  <text x="430" y="22" text-anchor="middle" font-family="monospace" font-size="11" fill="#94a3b8" font-weight="bold">
    🌍 COMPLETE 30-CLASS AERIAL IMAGE DATASET (AID) ENCYCLOPEDIA (10,000 SCENES)
  </text>

  <!-- 30 Tile Grid: 10 columns x 3 rows -->
  <!-- Col width: 80, spacing: 5. Start X: 15. Row height: 65. Start Y: 38 -->
  <g font-family="monospace" font-size="8">
    <!-- Row 1 -->
    <g transform="translate(15, 38)">
      <rect width="78" height="65" rx="6" fill="#1e293b" stroke="#64748b" stroke-width="1.2" style="animation:popTile .3s ease-out .05s both"/>
      <rect width="78" height="3" rx="1.5" fill="#64748b"/>
      <text x="39" y="32" text-anchor="middle" fill="#f8fafc" font-weight="bold">Airport</text>
      <text x="39" y="48" text-anchor="middle" fill="#64748b" font-size="7">360 img</text>
    </g>
    <g transform="translate(98, 38)">
      <rect width="78" height="65" rx="6" fill="#1e293b" stroke="#d97706" stroke-width="1.2" style="animation:popTile .3s ease-out .1s both"/>
      <rect width="78" height="3" rx="1.5" fill="#d97706"/>
      <text x="39" y="32" text-anchor="middle" fill="#f8fafc" font-weight="bold">Bare Land</text>
      <text x="39" y="48" text-anchor="middle" fill="#d97706" font-size="7">310 img</text>
    </g>
    <g transform="translate(181, 38)">
      <rect width="78" height="65" rx="6" fill="#1e293b" stroke="#10b981" stroke-width="1.2" style="animation:popTile .3s ease-out .15s both"/>
      <rect width="78" height="3" rx="1.5" fill="#10b981"/>
      <text x="39" y="32" text-anchor="middle" fill="#f8fafc" font-weight="bold">Baseball</text>
      <text x="39" y="48" text-anchor="middle" fill="#10b981" font-size="7">220 img</text>
    </g>
    <g transform="translate(264, 38)">
      <rect width="78" height="65" rx="6" fill="#1e293b" stroke="#facc15" stroke-width="1.2" style="animation:popTile .3s ease-out .2s both"/>
      <rect width="78" height="3" rx="1.5" fill="#facc15"/>
      <text x="39" y="32" text-anchor="middle" fill="#f8fafc" font-weight="bold">Beach</text>
      <text x="39" y="48" text-anchor="middle" fill="#facc15" font-size="7">400 img</text>
    </g>
    <g transform="translate(347, 38)">
      <rect width="78" height="65" rx="6" fill="#1e293b" stroke="#94a3b8" stroke-width="1.2" style="animation:popTile .3s ease-out .25s both"/>
      <rect width="78" height="3" rx="1.5" fill="#94a3b8"/>
      <text x="39" y="32" text-anchor="middle" fill="#f8fafc" font-weight="bold">Bridge</text>
      <text x="39" y="48" text-anchor="middle" fill="#94a3b8" font-size="7">360 img</text>
    </g>
    <g transform="translate(430, 38)">
      <rect width="78" height="65" rx="6" fill="#1e293b" stroke="#6366f1" stroke-width="1.2" style="animation:popTile .3s ease-out .3s both"/>
      <rect width="78" height="3" rx="1.5" fill="#6366f1"/>
      <text x="39" y="32" text-anchor="middle" fill="#f8fafc" font-weight="bold">Center</text>
      <text x="39" y="48" text-anchor="middle" fill="#6366f1" font-size="7">260 img</text>
    </g>
    <g transform="translate(513, 38)">
      <rect width="78" height="65" rx="6" fill="#1e293b" stroke="#a855f7" stroke-width="1.2" style="animation:popTile .3s ease-out .35s both"/>
      <rect width="78" height="3" rx="1.5" fill="#a855f7"/>
      <text x="39" y="32" text-anchor="middle" fill="#f8fafc" font-weight="bold">Church</text>
      <text x="39" y="48" text-anchor="middle" fill="#a855f7" font-size="7">240 img</text>
    </g>
    <g transform="translate(596, 38)">
      <rect width="78" height="65" rx="6" fill="#1e293b" stroke="#ec4899" stroke-width="1.2" style="animation:popTile .3s ease-out .4s both"/>
      <rect width="78" height="3" rx="1.5" fill="#ec4899"/>
      <text x="39" y="32" text-anchor="middle" fill="#f8fafc" font-weight="bold">Commercial</text>
      <text x="39" y="48" text-anchor="middle" fill="#ec4899" font-size="7">350 img</text>
    </g>
    <g transform="translate(679, 38)">
      <rect width="78" height="65" rx="6" fill="#1e293b" stroke="#ef4444" stroke-width="1.2" style="animation:popTile .3s ease-out .45s both"/>
      <rect width="78" height="3" rx="1.5" fill="#ef4444"/>
      <text x="39" y="32" text-anchor="middle" fill="#f8fafc" font-weight="bold">Dense Res.</text>
      <text x="39" y="48" text-anchor="middle" fill="#ef4444" font-size="7">410 img</text>
    </g>
    <g transform="translate(762, 38)">
      <rect width="78" height="65" rx="6" fill="#1e293b" stroke="#f59e0b" stroke-width="1.2" style="animation:popTile .3s ease-out .5s both"/>
      <rect width="78" height="3" rx="1.5" fill="#f59e0b"/>
      <text x="39" y="32" text-anchor="middle" fill="#f8fafc" font-weight="bold">Desert</text>
      <text x="39" y="48" text-anchor="middle" fill="#f59e0b" font-size="7">300 img</text>
    </g>

    <!-- Row 2 -->
    <g transform="translate(15, 110)">
      <rect width="78" height="65" rx="6" fill="#1e293b" stroke="#eab308" stroke-width="1.2" style="animation:popTile .3s ease-out .55s both"/>
      <rect width="78" height="3" rx="1.5" fill="#eab308"/>
      <text x="39" y="32" text-anchor="middle" fill="#f8fafc" font-weight="bold">Farmland</text>
      <text x="39" y="48" text-anchor="middle" fill="#eab308" font-size="7">370 img</text>
    </g>
    <g transform="translate(98, 110)">
      <rect width="78" height="65" rx="6" fill="#1e293b" stroke="#15803d" stroke-width="1.2" style="animation:popTile .3s ease-out .6s both"/>
      <rect width="78" height="3" rx="1.5" fill="#15803d"/>
      <text x="39" y="32" text-anchor="middle" fill="#f8fafc" font-weight="bold">Forest</text>
      <text x="39" y="48" text-anchor="middle" fill="#15803d" font-size="7">250 img</text>
    </g>
    <g transform="translate(181, 110)">
      <rect width="78" height="65" rx="6" fill="#1e293b" stroke="#71717a" stroke-width="1.2" style="animation:popTile .3s ease-out .65s both"/>
      <rect width="78" height="3" rx="1.5" fill="#71717a"/>
      <text x="39" y="32" text-anchor="middle" fill="#f8fafc" font-weight="bold">Industrial</text>
      <text x="39" y="48" text-anchor="middle" fill="#71717a" font-size="7">390 img</text>
    </g>
    <g transform="translate(264, 110)">
      <rect width="78" height="65" rx="6" fill="#1e293b" stroke="#84cc16" stroke-width="1.2" style="animation:popTile .3s ease-out .7s both"/>
      <rect width="78" height="3" rx="1.5" fill="#84cc16"/>
      <text x="39" y="32" text-anchor="middle" fill="#f8fafc" font-weight="bold">Meadow</text>
      <text x="39" y="48" text-anchor="middle" fill="#84cc16" font-size="7">280 img</text>
    </g>
    <g transform="translate(347, 110)">
      <rect width="78" height="65" rx="6" fill="#1e293b" stroke="#f97316" stroke-width="1.2" style="animation:popTile .3s ease-out .75s both"/>
      <rect width="78" height="3" rx="1.5" fill="#f97316"/>
      <text x="39" y="32" text-anchor="middle" fill="#f8fafc" font-weight="bold">Medium Res</text>
      <text x="39" y="48" text-anchor="middle" fill="#f97316" font-size="7">290 img</text>
    </g>
    <g transform="translate(430, 110)">
      <rect width="78" height="65" rx="6" fill="#1e293b" stroke="#78716c" stroke-width="1.2" style="animation:popTile .3s ease-out .8s both"/>
      <rect width="78" height="3" rx="1.5" fill="#78716c"/>
      <text x="39" y="32" text-anchor="middle" fill="#f8fafc" font-weight="bold">Mountain</text>
      <text x="39" y="48" text-anchor="middle" fill="#78716c" font-size="7">340 img</text>
    </g>
    <g transform="translate(513, 110)">
      <rect width="78" height="65" rx="6" fill="#1e293b" stroke="#22c55e" stroke-width="1.2" style="animation:popTile .3s ease-out .85s both"/>
      <rect width="78" height="3" rx="1.5" fill="#22c55e"/>
      <text x="39" y="32" text-anchor="middle" fill="#f8fafc" font-weight="bold">Park</text>
      <text x="39" y="48" text-anchor="middle" fill="#22c55e" font-size="7">350 img</text>
    </g>
    <g transform="translate(596, 110)">
      <rect width="78" height="65" rx="6" fill="#1e293b" stroke="#94a3b8" stroke-width="1.2" style="animation:popTile .3s ease-out .9s both"/>
      <rect width="78" height="3" rx="1.5" fill="#94a3b8"/>
      <text x="39" y="32" text-anchor="middle" fill="#f8fafc" font-weight="bold">Parking</text>
      <text x="39" y="48" text-anchor="middle" fill="#94a3b8" font-size="7">390 img</text>
    </g>
    <g transform="translate(679, 110)">
      <rect width="78" height="65" rx="6" fill="#1e293b" stroke="#0ea5e9" stroke-width="1.2" style="animation:popTile .3s ease-out .95s both"/>
      <rect width="78" height="3" rx="1.5" fill="#0ea5e9"/>
      <text x="39" y="32" text-anchor="middle" fill="#f8fafc" font-weight="bold">Playground</text>
      <text x="39" y="48" text-anchor="middle" fill="#0ea5e9" font-size="7">370 img</text>
    </g>
    <g transform="translate(762, 110)">
      <rect width="78" height="65" rx="6" fill="#1e293b" stroke="#06b6d4" stroke-width="1.2" style="animation:popTile .3s ease-out 1.0s both"/>
      <rect width="78" height="3" rx="1.5" fill="#06b6d4"/>
      <text x="39" y="32" text-anchor="middle" fill="#f8fafc" font-weight="bold">Pond</text>
      <text x="39" y="48" text-anchor="middle" fill="#06b6d4" font-size="7">420 img</text>
    </g>

    <!-- Row 3 -->
    <g transform="translate(15, 182)">
      <rect width="78" height="65" rx="6" fill="#1e293b" stroke="#0284c7" stroke-width="1.2" style="animation:popTile .3s ease-out 1.05s both"/>
      <rect width="78" height="3" rx="1.5" fill="#0284c7"/>
      <text x="39" y="32" text-anchor="middle" fill="#f8fafc" font-weight="bold">Port</text>
      <text x="39" y="48" text-anchor="middle" fill="#0284c7" font-size="7">380 img</text>
    </g>
    <g transform="translate(98, 182)">
      <rect width="78" height="65" rx="6" fill="#1e293b" stroke="#7c3aed" stroke-width="1.2" style="animation:popTile .3s ease-out 1.1s both"/>
      <rect width="78" height="3" rx="1.5" fill="#7c3aed"/>
      <text x="39" y="32" text-anchor="middle" fill="#f8fafc" font-weight="bold">Railway</text>
      <text x="39" y="48" text-anchor="middle" fill="#7c3aed" font-size="7">260 img</text>
    </g>
    <g transform="translate(181, 182)">
      <rect width="78" height="65" rx="6" fill="#1e293b" stroke="#d946ef" stroke-width="1.2" style="animation:popTile .3s ease-out 1.15s both"/>
      <rect width="78" height="3" rx="1.5" fill="#d946ef"/>
      <text x="39" y="32" text-anchor="middle" fill="#f8fafc" font-weight="bold">Resort</text>
      <text x="39" y="48" text-anchor="middle" fill="#d946ef" font-size="7">290 img</text>
    </g>
    <g transform="translate(264, 182)">
      <rect width="78" height="65" rx="6" fill="#1e293b" stroke="#2563eb" stroke-width="1.2" style="animation:popTile .3s ease-out 1.2s both"/>
      <rect width="78" height="3" rx="1.5" fill="#2563eb"/>
      <text x="39" y="32" text-anchor="middle" fill="#f8fafc" font-weight="bold">River</text>
      <text x="39" y="48" text-anchor="middle" fill="#2563eb" font-size="7">410 img</text>
    </g>
    <g transform="translate(347, 182)">
      <rect width="78" height="65" rx="6" fill="#1e293b" stroke="#16a34a" stroke-width="1.2" style="animation:popTile .3s ease-out 1.25s both"/>
      <rect width="78" height="3" rx="1.5" fill="#16a34a"/>
      <text x="39" y="32" text-anchor="middle" fill="#f8fafc" font-weight="bold">School</text>
      <text x="39" y="48" text-anchor="middle" fill="#16a34a" font-size="7">300 img</text>
    </g>
    <g transform="translate(430, 182)">
      <rect width="78" height="65" rx="6" fill="#1e293b" stroke="#fb923c" stroke-width="1.2" style="animation:popTile .3s ease-out 1.3s both"/>
      <rect width="78" height="3" rx="1.5" fill="#fb923c"/>
      <text x="39" y="32" text-anchor="middle" fill="#f8fafc" font-weight="bold">Sparse Res</text>
      <text x="39" y="48" text-anchor="middle" fill="#fb923c" font-size="7">300 img</text>
    </g>
    <g transform="translate(513, 182)">
      <rect width="78" height="65" rx="6" fill="#1e293b" stroke="#a16207" stroke-width="1.2" style="animation:popTile .3s ease-out 1.35s both"/>
      <rect width="78" height="3" rx="1.5" fill="#a16207"/>
      <text x="39" y="32" text-anchor="middle" fill="#f8fafc" font-weight="bold">Square</text>
      <text x="39" y="48" text-anchor="middle" fill="#a16207" font-size="7">330 img</text>
    </g>
    <g transform="translate(596, 182)">
      <rect width="78" height="65" rx="6" fill="#1e293b" stroke="#dc2626" stroke-width="1.2" style="animation:popTile .3s ease-out 1.4s both"/>
      <rect width="78" height="3" rx="1.5" fill="#dc2626"/>
      <text x="39" y="32" text-anchor="middle" fill="#f8fafc" font-weight="bold">Stadium</text>
      <text x="39" y="48" text-anchor="middle" fill="#dc2626" font-size="7">290 img</text>
    </g>
    <g transform="translate(679, 182)">
      <rect width="78" height="65" rx="6" fill="#1e293b" stroke="#475569" stroke-width="1.2" style="animation:popTile .3s ease-out 1.45s both"/>
      <rect width="78" height="3" rx="1.5" fill="#475569"/>
      <text x="39" y="32" text-anchor="middle" fill="#f8fafc" font-weight="bold">Storage</text>
      <text x="39" y="48" text-anchor="middle" fill="#475569" font-size="7">360 img</text>
    </g>
    <g transform="translate(762, 182)">
      <rect width="78" height="65" rx="6" fill="#1e293b" stroke="#0f766e" stroke-width="1.2" style="animation:popTile .3s ease-out 1.5s both"/>
      <rect width="78" height="3" rx="1.5" fill="#0f766e"/>
      <text x="39" y="32" text-anchor="middle" fill="#f8fafc" font-weight="bold">Viaduct</text>
      <text x="39" y="48" text-anchor="middle" fill="#0f766e" font-size="7">420 img</text>
    </g>
  </g>
</svg>
